<svg xmlns="http://www.w3.org/2000/svg" xmlns:xlink="http://www.w3.org/1999/xlink" height="800" width="1200" viewBox="-37.803195 -14.35575 327.62769 86.1345"><defs><clipPath id="D"><path d="M-.0778.7459H.114v.1808h-.1918z"/></clipPath><clipPath id="C"><path d="M350.194 726.023h3.877v-3.655h-3.877z"/></clipPath><clipPath id="B"><path d="M350.194 726.023c.135-.947.318-1.861.552-2.731 1.042-.372 2.157-.68 3.325-.924-.28.851-.517 1.75-.708 2.687-1.117.262-2.18.586-3.169.968"/></clipPath><clipPath id="z"><path d="M-.4374-.2771h.5462V.8524h-.5462z"/></clipPath><clipPath id="y"><path d="M342.925 746.701h11.041v-22.832h-11.041z"/></clipPath><clipPath id="x"><path d="M342.925 746.701h11.041v-22.832h-11.041z"/></clipPath><clipPath id="w"><path d="M349.291 723.869c-.295.908-.529 1.862-.708 2.85-1.754.856-3.233 1.902-4.325 3.091 1.175-.887 2.596-1.656 4.196-2.281-.254 1.779-.321 3.661-.166 5.601.441 5.616 2.621 10.491 5.678 13.571-6.441-2.353-11.041-8.538-11.041-15.794 0-.704.046-1.393.129-2.073 1.195-1.997 3.392-3.719 6.237-4.965"/></clipPath><clipPath id="u"><path d="M.1859.5181h1.0396v.7905H.186z"/></clipPath><clipPath id="t"><path d="M355.525 730.628h21.013V714.65h-21.013z"/></clipPath><clipPath id="s"><path d="M355.525 730.628h21.013V714.65h-21.013z"/></clipPath><clipPath id="r"><path d="M360.212 724.313c-1.625-.014-3.191.104-4.687.329.294-.941.634-1.833 1.016-2.675 1.155-.135 2.351-.206 3.576-.206 6.375 0 11.983 1.933 15.2 4.85-2.783-3.727-9.158-6.334-16.581-6.334-.452 0-.895.012-1.336.03 1.737-2.999 4.075-5.066 6.621-5.657 7.121 1.871 12.395 8.298 12.517 15.978-2.813-3.673-9.055-6.259-16.326-6.315"/></clipPath><clipPath id="p"><path d="M-.0926-.326h1.3048V.7596H-.0926z"/></clipPath><clipPath id="o"><path d="M349.892 747.69h26.375v-21.945h-26.375z"/></clipPath><clipPath id="n"><path d="M349.892 747.69h26.375v-21.945h-26.375z"/></clipPath><clipPath id="m"><path d="M349.996 731.512c-.104-1.567-.071-3.092.079-4.548.979-.3 2.004-.55 3.079-.743-.208 1.315-.329 2.697-.346 4.124-.079 7.515 2.696 13.88 6.563 15.865-3.383-2.899-5.442-8.928-4.942-15.719.116-1.59.371-3.119.734-4.557 1.149-.125 2.341-.189 3.562-.18 8.533.069 15.658 3.559 17.542 8.197-1.38 7.53-7.768 13.306-15.588 13.739-5.4-.323-10.096-7.313-10.683-16.178"/></clipPath><clipPath id="k"><path d="M-.3763.818h.8382v.5186h-.8382z"/></clipPath><clipPath id="j"><path d="M344.163 724.576h16.933v-10.479h-16.933z"/></clipPath><clipPath id="i"><path d="M354.762 720.535c-1.15.151-2.266.363-3.325.636 1.025-2.622 2.521-4.709 4.325-5.952-2.304 1.239-4.228 3.462-5.562 6.307-2.379.746-4.446 1.789-6.037 3.05 2.5-6.145 8.529-10.479 15.575-10.479.458 0 .908.023 1.358.06-2.562.529-4.821 2.914-6.334 6.378"/></clipPath><clipPath id="h"><path d="M122.496 1004.047h566.929V437.118H122.496z"/></clipPath><clipPath id="g"><path d="M336.966 754.016h201.617v-45.947H336.966z"/></clipPath><clipPath id="f"><path d="M336.966 754.016h201.617v-45.947H336.966z"/></clipPath><radialGradient gradientTransform="matrix(20.2107 0 0 -20.2107 351.7662 741.0973)" gradientUnits="userSpaceOnUse" id="e" fy="0" fx="0" r="1" cy="0" cx="0"><stop offset="0" stop-color="#f8fbfb"/><stop offset="1" stop-color="#00706b"/></radialGradient><radialGradient gradientTransform="matrix(20.21286 0 0 -20.21286 351.7657 741.0992)" gradientUnits="userSpaceOnUse" id="d" fy="0" fx="0" r="1" cy="0" cx="0"><stop offset="0" stop-color="#f8fbfb"/><stop offset="1" stop-color="#00706b"/></radialGradient><radialGradient gradientTransform="matrix(20.21216 0 0 -20.21216 351.7672 741.0997)" gradientUnits="userSpaceOnUse" id="c" fy="0" fx="0" r="1" cy="0" cx="0"><stop offset="0" stop-color="#f8fbfb"/><stop offset="1" stop-color="#00706b"/></radialGradient><radialGradient gradientTransform="matrix(20.21374 0 0 -20.21374 351.7642 741.0997)" gradientUnits="userSpaceOnUse" id="b" fy="0" fx="0" r="1" cy="0" cx="0"><stop offset="0" stop-color="#f8fbfb"/><stop offset="1" stop-color="#00706b"/></radialGradient><radialGradient gradientTransform="matrix(20.2013 0 0 -20.2013 351.7652 741.0987)" gradientUnits="userSpaceOnUse" id="a" fy="0" fx="0" r="1" cy="0" cx="0"><stop offset="0" stop-color="#f8fbfb"/><stop offset="1" stop-color="#00706b"/></radialGradient><radialGradient gradientTransform="matrix(20.2013 0 0 -20.2013 351.7652 741.0987)" gradientUnits="userSpaceOnUse" xlink:href="#a" id="l" fy="0" fx="0" r="1" cy="0" cx="0"/><radialGradient gradientTransform="matrix(20.21374 0 0 -20.21374 351.7642 741.0997)" gradientUnits="userSpaceOnUse" xlink:href="#b" id="q" fy="0" fx="0" r="1" cy="0" cx="0"/><radialGradient gradientTransform="matrix(20.21216 0 0 -20.21216 351.7672 741.0997)" gradientUnits="userSpaceOnUse" xlink:href="#c" id="v" fy="0" fx="0" r="1" cy="0" cx="0"/><radialGradient gradientTransform="matrix(20.21286 0 0 -20.21286 351.7657 741.0992)" gradientUnits="userSpaceOnUse" xlink:href="#d" id="A" fy="0" fx="0" r="1" cy="0" cx="0"/><radialGradient gradientTransform="matrix(20.2107 0 0 -20.2107 351.7662 741.0973)" gradientUnits="userSpaceOnUse" xlink:href="#e" id="E" fy="0" fx="0" r="1" cy="0" cx="0"/></defs><g clip-path="url(#f)" transform="matrix(1.25 0 0 -1.25 -421.2075 942.52)"><g clip-path="url(#g)"><g clip-path="url(#h)"><path d="M342.466 745.616l1.926 1.999 2.166-2.083-1.929-2.001zm-.387-.377l2.196-2.114.367-.375.387.399-.046.044 1.926 2.001.07-.067.392.409-.392.353-2.217 2.136-.346.352-.303-.339-2.068-2.149-.333-.32zm2.417-1.469l.266.297 1.246 1.293.304.3-.35.336-.226-.255c-.007.112-.015.216-.02.311l-.158-.002-.221-.009a1.2823 1.2823 0 00-.158.003l.25.236-.359.346-.199-.217-.396-.413-.321.31.417.431.292.273-.367.352-.288-.317-1.181-1.228-.285-.277.362-.346.263.294.408.424.321-.308-.325-.342-.283-.276.358-.344.267.293.324.339.437-.423-.441-.46-.287-.285zm.758 1.474l-.437.424.221.228c0-.124-.009-.235-.034-.329.208.02.342.027.4.02.062-.007.117-.013.165-.02zm2.575 4.1l-.1.221-.233.444-.159.285.463.223 1.083.567c-.079.029-.187.059-.321.088.051.055.09.104.121.15.033.046.101.147.196.308.263-.059.454-.106.579-.142a.6016.6016 0 01-.062-.14l1.162.607.421.236.142-.295.233-.448.125-.222-.517-.27-.108.231-.15.292-2.625-1.373.15-.281.121-.212zm1.867-1.047c.217.321.375.587.474.799a.3498.3498 0 01-.083.066c-.154-.25-.296-.466-.424-.653-.134-.187-.342-.424-.625-.712-.063.049-.118.09-.167.126-.05.035-.155.094-.302.176.147.111.268.216.373.313.099.097.217.23.349.399.134.168.254.347.363.536l-.067.016c-.162-.18-.287-.314-.375-.4-.091-.086-.237-.22-.441-.405-.055.044-.101.084-.147.117-.045.034-.158.099-.333.193.125.082.292.199.497.349.208.152.437.406.691.76l-.596-.31-.342-.192-.229.434.354.172 1.697.879.383.214.225-.434-.396-.194-.596-.31c.071-.014.145-.027.229-.036-.104-.16-.204-.312-.295-.457.17-.026.281-.05.325-.075l.133-.067c.204.379.316.607.345.687l.105.292c.062-.028.125-.048.175-.064.049-.016.191-.038.42-.07-.125-.219-.233-.413-.325-.58.068-.069.176-.167.318-.293.145-.127.34-.22.59-.275.247-.055.493-.071.737-.048a2.581 2.581 0 01-.066-.271c-.016-.071-.033-.189-.046-.354-.345.023-.616.068-.803.136-.192.067-.363.151-.509.253-.146.1-.313.239-.491.416l-.105-.156c.046-.067.088-.125.125-.18.038-.056.096-.165.184-.327.086-.161.141-.298.175-.413.033-.113.025-.233-.017-.361-.041-.127-.221-.276-.541-.448-.13.156-.217.25-.263.285l-.171.137c.229.075.363.146.392.209.033.065.033.139.004.226-.033.085-.063.152-.087.2l-.025.049c-.092-.174-.221-.377-.375-.608-.163-.231-.305-.413-.43-.547l-.429-.474c-.125.096-.217.16-.283.191l-.217.111c.408.328.721.652.938.973m6.875 3.574l.983.151.079-.516-.981-.152zm-.155 1.011l.984.153.079-.527-.983-.151zm-1.257-1.229l.866.132.079-.516-.866-.133zm-.73 1.052l.271-1.754.058-.471.571.088-.012.068.862.132.1-.662c.021-.104.042-.186.071-.246.033-.059.096-.107.188-.144.095-.037.229-.043.406-.016.173.026.402.057.68.094.289.036.505.066.643.097.137.029.241.062.308.101.062.039.121.095.171.17.049.077.095.278.137.604-.167.029-.358.09-.583.181v-.183c0-.12-.021-.207-.075-.263-.046-.053-.117-.092-.208-.116-.092-.025-.24-.051-.455-.077l-.5-.065c-.108-.012-.175-.003-.208.025-.029.027-.046.062-.054.101l-.071.486.983.151.013-.085.566.087-.079.448-.275 1.79-.05.403-.362-.073-1.188-.183-.042.258-.046.365-.57-.089.067-.361.042-.257-1.004-.154-.43-.05zm.575-.042l.863.134.079-.525-.863-.133zm6.708-2.659l.092.602.098.554c.094-.135.156-.23.185-.286.034-.054.063-.11.088-.168.204.196.329.328.383.396.053.067.101.127.138.178l.037-.134c.009-.025.013-.089.025-.195l.121.081c.075.048.204.104.388.169-.075.237-.154.464-.229.679l.07.147c.025.051.075.168.15.348.113-.203.187-.332.213-.385.025-.054.07-.176.129-.365l-.104-.181a2.6431 2.6431 0 00-.267-.369c-.108-.118-.25-.237-.429-.357.137-.111.229-.19.267-.235.041-.047.087-.101.133-.163.104.079.183.151.246.216.066.066.2.221.404.466l.079-.269c.004-.027.021-.107.046-.244.179.132.346.238.491.315l-.05.163c-.007.011-.087.223-.237.632l.109.275c.041.102.095.239.154.411l.087.268c.009.031.025.075.046.133-.179.044-.363.102-.546.172l-.03-.144c-.007-.076-.049-.224-.125-.444-.057.124-.112.235-.162.331l-.112-.068c-.066-.043-.175-.084-.325-.124l.088.231c.004.005.016.041.041.112.021.071.042.13.058.177-.213.057-.391.123-.533.196l-.037-.184c-.021-.079-.038-.152-.059-.219-.025-.066-.049-.138-.075-.214-.071.141-.129.271-.179.39-.133-.077-.225-.124-.271-.14-.05-.014-.096-.027-.142-.038l.109.625 2.562-.439-.458-2.679c-.012-.054-.029-.094-.054-.122-.025-.027-.096-.029-.208-.007-.092.018-.192.045-.296.08l.042-.158c.041-.151.057-.263.053-.338-.003-.073-.003-.132-.007-.176.291-.031.507-.036.645-.012.133.025.223.075.258.153.038.077.062.164.075.259l.496 2.886.109.553-.546.077-2.613.449-.554.109-.083-.556-.463-2.719-.116-.597zm.44 2.623l.086-.177c.024-.05.099-.228.228-.534-.087-.175-.175-.31-.258-.402-.079-.091-.179-.186-.295-.283zm8.827-1.383c.154-.116.333-.223.533-.32a1.2039 1.2039 0 01-.087-.151c-.025-.046-.051-.107-.079-.181-.025-.075-.051-.214-.079-.414-.025-.201-.009-.388.045-.56.062-.172.113-.301.163-.393.046-.091.092-.164.129-.222.046-.059.134-.152.267-.277-.063-.026-.117-.054-.175-.081-.059-.027-.197-.119-.417-.276-.166.222-.293.45-.392.685-.092.235-.149.452-.171.647-.016.197-.016.384.005.564.021.179.041.323.074.434.03.109.088.292.184.545m-2.929-2.05c.092.017.217.053.37.109.155.056.317.122.484.2.167.077.334.174.5.289.167.115.271.192.317.232l.091.084c.104-.214.222-.415.354-.606-.091-.043-.158-.076-.204-.095l-.362-.178c-.175-.083-.351-.157-.521-.227-.175-.069-.385-.14-.637-.213.52-.264 1.037-.519 1.546-.768-.026.246-.042.407-.055.479l-.062.297c.241-.027.396-.035.47-.02l.121.018c.096-.691.167-1.254.208-1.686-.32-.045-.487-.07-.495-.071l-.167-.044c.004.071.009.133.013.188 0 .053-.004.157-.013.311-.262.123-.637.292-1.125.505-.491.211-.792.341-.908.385-.112.045-.25.087-.404.126.05.226.071.389.062.487l-.009.163c.195.006.334.019.426.035m.063.968c-.038.254-.072.425-.109.514l-.054.142c.196-.022.424 0 .683.067.263.067.509.156.741.268.23.111.434.245.614.398l.103.094c.113-.194.242-.363.384-.51-.292-.174-.538-.317-.737-.433-.2-.113-.459-.219-.776-.315-.312-.098-.595-.172-.849-.225m5.875-3.828l-.579-.541-.342-.29.325-.326.941-1.012.33-.379.316.32.579.541.316.268-.349.357-.946 1.013-.3.346zm1.449.89l1.788-1.919-2.062-1.92c-.063-.059-.113-.089-.151-.092-.033-.003-.083.031-.149.096-.026.025-.063.066-.117.128-.05.061-.1.12-.146.173l-.071-.168a1.1875 1.1875 0 00-.125-.23c-.05-.06-.092-.115-.137-.165.271-.254.471-.402.591-.447.121-.045.209-.061.263-.044.049.017.125.073.229.168l2.287 2.128.362.317-.362.367-1.825 1.959-.396.451-.399-.374zm.863-1.564l-1.325 1.423-.342.392-.395-.369.366-.367 1.325-1.423.379-.43.396.365zm-2.471-.214l.45.422.834-.892-.454-.42zm-32.208-6.798l.128-.122-.112-.249-.974.173.016.322c.237.007.445.058.616.152.176.096.301.223.375.38.055.122.072.231.046.33-.02.097-.079.165-.171.207-.143.069-.379-.095-.691-.485-.046-.058-.083-.099-.108-.127-.229-.278-.438-.447-.625-.51-.188-.062-.4-.038-.633.069-.309.142-.522.348-.625.619-.105.271-.085.557.05.858.062.131.137.251.229.356.094.107.195.201.32.281l-.162.129.109.24 1.233-.19-.021-.358c-.317.004-.587-.047-.809-.152-.221-.106-.375-.254-.466-.445-.058-.135-.071-.265-.038-.39.033-.126.101-.213.204-.261.154-.07.375.06.658.394.038.045.067.08.088.106.138.163.254.29.346.382.092.093.163.152.221.181.117.062.245.094.379.094.133 0 .271-.031.407-.093.263-.123.447-.312.543-.569.092-.258.079-.523-.046-.797-.054-.112-.116-.212-.199-.3-.08-.085-.176-.162-.288-.225m-.261-.982l-.69-2.288-1.037-.032-.037.303c.267.037.466.1.6.19.133.092.22.226.279.404l.013.042-1.713.518c-.241.071-.401.096-.48.071-.079-.026-.141-.101-.182-.225l-.377.114.414 1.374.379-.114c-.033-.13-.03-.23.021-.293.05-.066.196-.135.442-.208l1.708-.517.016.044c.055.18.051.346-.008.494-.056.149-.191.313-.391.491l.195.229zm-3.006-2.306c-.013.007-.029.017-.05.03-.276.153-.417.332-.417.537l-.391.062-.188-1.192.384-.06c.02.118.054.198.096.24.041.039.099.053.183.04.012-.001.025-.005.041-.009.017-.006.029-.012.046-.016l.421-.192-.138-.875-.458-.079a.8266.8266 0 00-.063-.006c-.029 0-.053.003-.078.007-.067.01-.113.038-.134.085-.021.045-.025.118-.008.219l.004.034-.383.059-.217-1.387.392-.062c.048.163.204.27.471.319l.02.001 2.476.427.099.654zm.404-1.351l.088.577.866-.451zm1.454-1.543l-.042-2.389-.991-.313-.117.281c.246.11.424.225.525.348.1.123.155.276.159.464v.045l-1.788.033c-.25.004-.413-.017-.479-.062-.07-.047-.108-.134-.116-.267l-.397.008.026 1.435.395-.007c.005-.135.038-.228.105-.277.066-.049.224-.076.479-.08l1.787-.032v.045c.004.188-.042.346-.141.473-.096.128-.267.248-.509.365l.128.274zm-.049-2.6l.303-2.382-.908-.509-.187.243c.225.185.383.376.483.573.096.198.133.407.1.623-.012.126-.05.209-.1.246-.054.039-.171.046-.342.023l-.454-.057.017-.139c.021-.15.062-.245.133-.289.071-.043.205-.057.409-.042l.037-.304-1.442-.183-.037.302c.188.044.321.104.4.177.075.072.104.167.091.286l-.02.139-.742-.095c-.168-.023-.28-.059-.321-.11-.042-.053-.055-.142-.038-.27.026-.219.13-.423.313-.614s.421-.345.713-.462l-.129-.298-1.151.294-.312 2.439.392.05c.021-.132.066-.216.137-.254.071-.036.238-.039.491-.006l1.226.157c.254.033.417.077.475.131.062.054.084.147.071.28zm1.257-6.062l.151-.016.092-.259-.938-.617-.246.27c.229.227.384.429.458.606.08.175.09.348.025.514-.07.211-.229.339-.47.38-.243.045-.548-.001-.922-.134-.374-.132-.637-.286-.791-.466-.155-.18-.196-.373-.12-.585.057-.167.153-.286.283-.351.129-.069.27-.072.429-.017.108.039.179.093.208.163.032.068.025.167-.012.292l.353.126.454-1.274-.357-.127c-.071.114-.146.181-.217.203-.071.021-.188.002-.35-.055l-.8-.285-.146.408.208.199c-.141.087-.254.186-.345.298-.089.114-.163.249-.217.406-.138.373-.096.725.121 1.056.217.331.566.583 1.058.756.455.162.875.164 1.258.006.379-.158.642-.437.784-.839.038-.1.062-.204.066-.309.009-.108.007-.223-.017-.349m.076-1.102c.062-.124.075-.221.042-.294-.039-.073-.167-.172-.392-.295l-1.088-.593c-.225-.119-.375-.177-.454-.167-.083.01-.158.072-.23.19l-.345-.189.692-1.27.346.192c-.063.123-.075.22-.038.295.038.072.167.169.387.291l.355.192.138-.255-.776-1.472.442-.813.341.185c-.042.097-.058.187-.056.271.003.084.032.181.086.293l.425.896c.17-.166.341-.265.516-.294.175-.028.359.01.55.115.259.14.404.332.437.575.035.24-.049.537-.237.886l-.791 1.45zm.174-1.156c.15.079.255.113.322.095.062-.016.129-.083.195-.204.097-.171.132-.328.108-.468-.024-.141-.101-.247-.237-.322-.149-.081-.291-.084-.429-.007-.137.077-.275.235-.404.477-.021.04-.038.069-.046.09-.013.02-.02.036-.026.055zm1.732-1.397l.844-1.19-.321-.23c-.084.112-.167.166-.255.166-.083 0-.225-.072-.432-.218l-1.009-.718c-.201-.146-.32-.258-.346-.338-.029-.079-.004-.176.071-.294l-.321-.23-.845 1.191.32.229c.086-.108.171-.164.255-.164.083 0 .228.074.432.218l1.009.716c.204.147.32.261.35.34.025.078 0 .177-.075.294zm.548-1.532c.088-.099.121-.185.104-.262-.016-.077-.125-.203-.317-.381l-.912-.83c-.196-.177-.329-.271-.409-.28-.079-.01-.162.032-.25.124l-.295-.266.954-1.049c.362-.399.746-.612 1.141-.639.397-.024.788.137 1.171.487.384.35.579.724.592 1.122.013.397-.167.794-.529 1.194l-.954 1.048zm.433-1.07c.129.121.229.179.287.179.063 0 .138-.047.222-.139.187-.206.254-.44.208-.704-.055-.262-.217-.523-.496-.776-.279-.255-.554-.394-.82-.421-.267-.024-.493.067-.68.272-.083.093-.125.168-.121.229.005.061.071.152.204.271zm4.721-3.216l.15.13.19-.13-.369-1.19-.308.087c.066.287.074.545.021.773-.05.226-.151.394-.302.5-.198.137-.415.153-.661.052-.246-.101-.475-.31-.692-.623-.217-.313-.329-.603-.333-.868 0-.264.104-.47.321-.618.146-.103.329-.15.549-.145.217.004.434.063.651.174l.196-.343c-.321-.19-.625-.285-.917-.287-.292-.004-.566.089-.833.274-.38.261-.592.598-.646 1.013-.052.412.066.828.358 1.252.279.396.621.644 1.029.74.408.095.792.02 1.145-.225.093-.066.176-.144.251-.236.071-.092.137-.202.2-.33m.967-.895c-.392-.154-.697-.459-.912-.911-.217-.452-.263-.88-.138-1.283.129-.403.399-.706.82-.907.417-.201.825-.225 1.217-.072.396.154.704.458.921.909.217.455.263.883.138 1.286-.129.402-.405.705-.822.905-.424.203-.829.227-1.224.073m1.404-.98c.024-.259-.055-.569-.226-.932-.174-.36-.366-.614-.583-.757-.216-.143-.43-.164-.645-.06-.217.104-.338.283-.358.54-.026.258.049.568.224.931.175.363.371.618.584.76.216.144.433.165.65.061.212-.102.329-.284.354-.543m1.195-.257c.13-.044.209-.103.239-.182.024-.077 0-.239-.072-.485l-.349-1.188c-.072-.244-.138-.39-.2-.44-.063-.052-.164-.059-.296-.026l-.113-.381 1.388-.406.107.38c-.128.043-.208.104-.232.181-.025.079-.005.237.066.48l.113.386.279-.081.496-1.589.887-.26.108.37c-.095.042-.171.09-.228.151-.059.062-.109.15-.151.267l-.333.933c.242.003.429.058.575.16.142.104.246.259.308.471.079.282.05.519-.099.714-.151.194-.414.348-.796.459l-1.583.466zm.943-.695c.046.162.099.26.154.295.062.035.153.033.287-.005.188-.056.32-.141.404-.256.083-.115.104-.246.063-.396-.046-.162-.15-.265-.3-.308-.15-.043-.358-.026-.621.052-.042.011-.075.022-.096.028-.025.009-.042.015-.058.02zm2.154-.184c.129-.022.208-.066.245-.138.038-.068.038-.235 0-.497l-.162-1.219c-.038-.26-.083-.419-.134-.477-.053-.057-.145-.081-.274-.066l-.055-.394 1.401-.189.049.393c-.125.022-.208.068-.246.141-.033.072-.033.237 0 .491l.046.328.496-.067c.355-.049.629-.007.825.121.196.129.317.346.359.649.041.316-.022.567-.184.755-.162.187-.429.304-.796.354l-1.516.206zm1.017-.547c.024.167.053.274.099.318.042.045.116.06.225.046.163-.022.288-.088.367-.195.079-.108.104-.246.083-.412-.024-.182-.096-.313-.221-.391-.125-.078-.292-.101-.508-.073-.034.005-.062.01-.083.013-.021.004-.038.007-.052.011zm2.166.179c-.284-.313-.421-.723-.412-1.224.007-.503.162-.903.454-1.207.296-.304.674-.452 1.141-.443.463.009.838.17 1.121.482.284.316.421.724.412 1.225-.007.504-.162.906-.454 1.208-.296.305-.674.451-1.141.444-.467-.009-.842-.171-1.121-.485m1.692-.245c.137-.221.208-.531.216-.935.005-.401-.054-.714-.183-.938-.125-.225-.312-.34-.551-.344-.241-.005-.424.104-.562.321-.137.222-.208.532-.216.934-.009.402.057.718.183.942.13.226.308.339.55.344.238.005.42-.102.563-.324m1.179.307c.137.021.233.001.292-.055.057-.058.112-.212.158-.465l.225-1.218c.045-.248.049-.409.016-.482-.033-.075-.116-.127-.25-.158l.071-.391 1.421.264-.071.39c-.138-.021-.233-.004-.291.055-.059.058-.113.21-.154.46l-.075.396.283.053 1.158-1.196.913.167-.071.381c-.105-.008-.197.003-.276.031-.079.028-.162.085-.25.17l-.72.683c.209.112.358.245.437.402.084.156.105.344.063.558-.05.289-.188.488-.409.594-.22.106-.524.123-.917.051l-1.625-.3zm1.154-.195c-.029.166-.029.277.008.333.038.058.121.1.255.124.191.035.353.02.478-.045.13-.065.204-.174.234-.324.029-.167-.013-.305-.129-.411-.117-.107-.309-.186-.575-.235-.046-.007-.08-.015-.104-.016-.021-.005-.042-.007-.059-.01zm2.954-.847v-.063c-.004-.315-.096-.522-.276-.619l.131-.376 1.136.4-.129.367c-.112-.038-.2-.047-.253-.031-.055.02-.096.066-.122.143-.007.011-.007.025-.012.041-.002.015-.008.033-.012.052l-.029.458.837.293.288-.366c.011-.017.024-.036.033-.055.013-.02.02-.044.033-.071.021-.063.017-.114-.013-.156-.029-.04-.091-.078-.187-.111l-.033-.013.129-.366 1.325.468-.133.374c-.167-.035-.334.052-.505.265l-.008.016-1.55 1.976-.625-.22zm1 .991l-.55-.195-.012.976zm.717 2.036l2.125 1.096.746-.723-.196-.236c-.208.166-.396.264-.55.295-.158.033-.321.006-.487-.081l-.038-.019.821-1.59c.116-.223.211-.354.283-.393.07-.04.167-.03.287.025l.184-.35-1.28-.661-.178.352c.116.067.182.141.195.221.013.08-.041.235-.158.462l-.821 1.589-.041-.02c-.167-.086-.284-.202-.351-.35-.066-.146-.091-.354-.075-.623l-.304-.021zm2.375 1.274l1.217.814.22-.328c-.117-.083-.17-.166-.174-.25 0-.084.07-.231.208-.441l.687-1.026c.142-.21.25-.329.329-.358.075-.031.175-.008.296.064l.223-.329-1.219-.814-.217.329c.109.083.167.166.171.251 0 .082-.066.229-.208.439l-.687 1.027c-.138.21-.25.329-.326.358-.079.029-.178.007-.295-.064zm1.941.847c-.016-.422.142-.822.471-1.201.329-.379.704-.591 1.125-.635.421-.045.805.086 1.158.393.351.303.533.667.551 1.089.017.424-.143.826-.472 1.205-.329.378-.704.59-1.125.634-.421.043-.807-.089-1.158-.391-.349-.307-.533-.67-.55-1.094m1.454.898c.247-.081.504-.274.767-.577.263-.302.417-.581.463-.837.048-.255-.022-.461-.2-.616-.184-.158-.396-.194-.638-.114-.246.08-.5.273-.767.577-.262.305-.417.583-.462.839-.05.254.021.461.2.617.179.155.391.192.637.111m.388 1.234l.787.949 2.055-.405-.658.549c-.197.164-.334.249-.417.256-.079.008-.167-.036-.259-.135l-.295.245.695.831.3-.255c-.083-.106-.112-.2-.092-.279.022-.079.13-.201.326-.366l1.708-1.422-.337-.405-2.767.532 1.142-.953c.2-.162.333-.247.417-.254.083-.006.166.038.257.136l.296-.247-.691-.831-.305.252c.084.111.113.205.092.284-.02.078-.129.2-.325.363l-.945.788c-.201.164-.338.249-.417.255-.087.01-.171-.039-.263-.142zm3.15 3.549c.146-.399.442-.711.887-.938.447-.227.875-.284 1.28-.169.408.115.716.382.929.797.208.412.245.817.102 1.216-.144.399-.44.712-.885.941-.447.23-.875.284-1.281.168-.407-.117-.715-.382-.928-.797-.212-.415-.246-.821-.104-1.218m1.017 1.376c.258.018.567-.065.925-.249.353-.181.603-.383.741-.602.14-.22.154-.435.046-.647-.112-.214-.291-.329-.55-.345-.259-.017-.566.066-.925.249-.358.184-.608.386-.746.604-.137.22-.154.434-.046.647.112.212.292.326.555.343m-.13 1.251l.776 2.31 1.007.105.051-.289c-.259-.068-.471-.173-.637-.311-.167-.139-.284-.315-.355-.525-.046-.137-.054-.237-.02-.3.031-.065.128-.123.295-.179l.421-.143.046.128c.05.161.054.282.012.362-.045.079-.158.155-.341.224l.087.259 1.408-.473-.087-.259c-.183.042-.329.04-.433-.001-.109-.04-.184-.125-.225-.256l-.042-.125.504-.17c.237-.079.396-.107.476-.08.083.026.145.105.199.237l.375-.125-.475-1.409-.375.126c.042.136.037.239-.012.308-.046.068-.192.144-.429.224l-1.175.393c-.238.079-.396.108-.476.082-.079-.024-.141-.103-.2-.238zm1.522 5.828l-.188.074.029.228 1.225.23.067-.315c-.288-.076-.517-.188-.696-.339-.176-.151-.275-.318-.301-.504-.028-.238.059-.441.263-.608.204-.169.492-.276.871-.321.379-.048.688-.011.921.112.237.121.371.31.4.569.025.177-.017.361-.125.552-.108.191-.258.357-.458.496l.212.332c.319-.195.546-.42.684-.676.137-.255.183-.544.146-.866-.059-.456-.259-.803-.601-1.042-.337-.239-.762-.328-1.271-.265-.483.058-.862.247-1.137.565-.275.315-.383.688-.333 1.116.016.113.046.224.092.331.049.109.116.219.2.331m-.03.74l-.054 1.435.38.015c.007-.132.049-.221.12-.264.075-.043.238-.06.492-.051l.325.013-.046 1.097-.321-.013c-.258-.01-.421-.039-.487-.088-.067-.048-.1-.141-.1-.273l-.38-.014-.054 1.435.392.016c.013-.138.053-.228.116-.271.072-.046.234-.064.496-.053l1.234.046c.254.012.414.04.479.09.063.05.096.144.092.281l.399.013.055-1.433-.384-.016c-.008.133-.046.221-.116.265-.067.043-.233.062-.492.051l-.533-.021.046-1.097.535.02c.252.011.417.04.481.089.067.049.096.141.096.273l.384.014.053-1.435-.395-.015c-.013.135-.05.225-.117.271-.071.045-.229.064-.488.052l-1.229-.047c-.258-.01-.42-.039-.487-.091-.067-.048-.096-.142-.096-.278zm-.187 3.33l-.237 1.442.391.063c.029-.137.079-.222.154-.258.075-.038.24-.037.488.005l1.217.201c.25.04.403.089.462.148.062.06.079.157.066.296l.392.065.238-1.442-.392-.063c-.029.134-.084.222-.158.258-.073.037-.238.036-.483-.005l-1.222-.201c-.25-.04-.403-.091-.462-.148-.059-.06-.079-.158-.062-.298zm-.204 1.501l-.342 1.187 1.491 1.469-.824-.237c-.246-.069-.396-.134-.446-.197-.054-.063-.063-.16-.033-.29l-.368-.105-.299 1.039.383.109c.041-.13.1-.207.179-.234.075-.029.237-.007.487.063l2.134.61.146-.51-2.004-1.986 1.433.41c.245.069.396.135.446.199.054.061.067.159.033.289l.371.105.3-1.04-.383-.108c-.042.13-.105.21-.184.236-.075.027-.237.004-.483-.066l-1.184-.337c-.241-.071-.391-.138-.445-.2-.055-.065-.062-.163-.029-.296zm1.099 4.101c.017 0 .034.002.063.005.312.024.525-.05.642-.222l.362.165-.5 1.099-.354-.161c.05-.112.067-.196.054-.251-.013-.057-.059-.102-.133-.137a.2932.2932 0 00-.038-.014c-.016-.005-.033-.009-.05-.014l-.454-.071-.366.807.337.319c.017.015.033.029.055.04.016.013.041.027.066.039.063.026.112.028.158.002.042-.028.083-.087.125-.179l.017-.032.354.16-.584 1.28-.362-.165c.054-.162-.02-.338-.217-.523l-.016-.013-1.833-1.72.275-.601zm-1.075.909l.242-.531-.97-.1z" fill="#00706b"/><g clip-path="url(#i)"><g clip-path="url(#j)"><path d="M344.163 724.576h16.933v-10.479h-16.933z" fill="#00706b"/><g clip-path="url(#k)"><path d="M344.163 724.576h16.933v-10.479h-16.933z" fill="url(#l)"/></g></g></g><g clip-path="url(#m)"><g clip-path="url(#n)"><path d="M349.892 747.69h26.375v-21.945h-26.375z" fill="#00706b"/><g clip-path="url(#o)"><g clip-path="url(#p)"><path d="M349.892 747.69h26.375v-21.945h-26.375z" fill="url(#q)"/></g></g></g></g><g clip-path="url(#r)"><g clip-path="url(#s)"><path d="M355.525 730.628h21.013V714.65h-21.013z" fill="#00706b"/><g clip-path="url(#t)"><g clip-path="url(#u)"><path d="M355.525 730.628h21.013V714.65h-21.013z" fill="url(#v)"/></g></g></g></g><g clip-path="url(#w)"><g clip-path="url(#x)"><path d="M342.925 746.701h11.041v-22.832h-11.041z" fill="#00706b"/><g clip-path="url(#y)"><g clip-path="url(#z)"><path d="M342.925 746.701h11.041v-22.832h-11.041z" fill="url(#A)"/></g></g></g></g><g clip-path="url(#B)"><g clip-path="url(#C)"><path d="M350.194 726.023h3.877v-3.655h-3.877z" fill="#00706b"/><g clip-path="url(#D)"><path d="M350.194 726.023h3.877v-3.655h-3.877z" fill="url(#E)"/></g></g></g><path d="M341.896 730.907c0 9.837 8.004 17.839 17.842 17.839 9.833 0 17.837-8.002 17.837-17.839 0-9.837-8.004-17.839-17.837-17.839-9.838 0-17.842 8.002-17.842 17.839m-.267 0c0-9.983 8.125-18.103 18.109-18.103 9.978 0 18.099 8.12 18.099 18.103 0 9.983-8.121 18.104-18.099 18.104-9.984 0-18.109-8.121-18.109-18.104m68.594 15.922h-1.702l-.412-.956s-1.903 1.294-4.431 1.294c-2.517 0-6.47-1.703-6.47-6.27 0-3.952 3.474-4.908 4.227-5.111.745-.206 4.835-1.293 5.79-1.772.956-.478 1.839-1.09 1.839-1.772 0-.68-.478-2.589-3.54-2.589-3.069 0-5.797 2.861-6.752 5.384l-2.043-.749 2.114-7.294h1.702l.341 1.228s1.837-1.362 4.768-1.362c2.932 0 7.427 1.225 7.427 7.017 0 4.362-4.357 5.317-5.652 5.59-1.296.273-6.067 1.225-6.067 3.066 0 1.838 2.455 1.908 2.794 1.908.341 0 3.344.273 5.799-4.021l1.903.682zm2.315-8.521l1.635 4.908h12.406l1.702-4.908-1.427-.544s-.955 3.27-4.567 3.27v-8.998c0-1.087-.138-2.656 1.766-2.792v-1.839h-7.354v1.839s1.766-.339 1.766 2.046v9.744c-1.013 0-3.264-.137-4.567-3.27zm27.396 0l1.635 4.908h12.407l1.701-4.908-1.425-.544s-.957 3.27-4.569 3.27v-8.998c0-1.087-.137-2.656 1.775-2.792v-1.839h-7.37v1.839s1.774-.339 1.774 2.046v9.744c-1.02 0-3.272-.137-4.559-3.27zm-14.108-9.064v-1.839h6.204v1.772s-2.316-.479-1.433 2.249c.89 2.723 2.931 8.041 2.931 8.041s2.57-6.882 2.909-8.041c.341-1.161.572-2.182-1.403-2.182v-1.839h7.288v1.839s-1.252-.261-2.388 3.02c-.882 2.567-3.952 10.952-3.952 10.952h-3.409s-3.677-9.883-4.292-11.383c-.616-1.498-.818-2.18-2.455-2.589" fill="#00706b"/><path d="M436.532 735.037h-5.863v-1.976h5.863zm18.805 6.201v1.978h12.406l2.041-4.702-1.434-.82s-1.628 3.544-5.856 3.544c-1.497 0-1.635-.886-1.635-2.112v-7.634c0-1.294.203-2.248 1.571-2.248 1.361 0 4.219.411 6.544 4.362l1.426-.75-2.317-5.451h-12.746v1.839s1.773-.41 1.773 2.589v7.02c0 1.909-.616 2.385-1.773 2.385" fill="#00706b"/><path d="M460.447 737.082h1.57c.956 0 1.774.339 1.774 2.315h1.57v-7.086h-1.635s.13 2.657-2.187 2.657h-2.315zm33.462 2.658l2.121.818-1.781 6.541h-1.7l-.336-.817s-1.982 1.021-4.16 1.021c-2.187 0-9.359-1.294-9.359-9.88 0-4.294 1.724-10.497 8.331-10.497 3.823 0 5.524 1.84 5.524 1.84l.752-1.635h2.794v5.18c0 2.453 1.02 2.998 2.04 2.998v2.248h-8.584v-2.178s2.252.066 2.252-2.046c0-2.112-1.369-3.407-3.482-3.407-2.114 0-4.697.954-4.697 7.156 0 6.199 2.315 7.562 4.566 7.562 2.244 0 4.023-1.567 5.719-4.904" fill="#00706b"/><path d="M503.455 736.402v2.86c0 1.5.479 2.043 1.905 2.043 1.432 0 3.271-.543 3.271-2.316 0-1.975-1.02-2.587-5.176-2.587m18.263 4.903v1.911h-7.564v-1.911c1.093 0 1.91-.478 1.91-2.179v-7.155c0-2.657-1.165-2.456-1.703-2.456-.548 0-1.301.138-2.025 1.024-.65.788-3.227 4.225-3.227 4.225.681.136 3.546 1.022 3.546 4.292 0 3.271-2.931 4.16-7.02 4.16h-7.839v-1.978c1.433 0 1.846-.614 1.846-2.385v-6.882c0-3.137-1.846-2.591-1.846-2.591v-1.975h7.564v1.975c-1.564 0-1.839 1.089-1.839 2.385v2.523h1.501l4.832-6.883h11.864v2.043c-1.774 0-1.904 1.227-1.904 2.249v7.429c0 2.453 1.904 2.179 1.904 2.179m7.839-11.857c-1.708 0-1.572 1.293-1.572 2.656v6.749c0 2.044.413 2.521 1.636 2.521 1.231 0 4.844-.477 4.844-5.929s-3.207-5.997-4.908-5.997m-.275 13.768h-6.813v-1.842c1.228 0 1.703-.477 1.703-2.657v-6.613c0-3.27-1.703-2.724-1.703-2.724v-1.975h5.929c4.155 0 10.148.544 10.148 7.974 0 7.427-5.855 7.837-9.264 7.837m-125.994-20.513h.383l.638-2.607h-.383s-.891 2.198-3.04 2.198c-2.143 0-2.861-1.866-2.861-3.145 0-1.276.565-3.168 2.737-3.168s3.192 1.482 3.264 1.586l.485-.308s-1.245-1.839-3.727-1.839c-2.475 0-4.155 1.764-4.155 3.806 0 2.045 1.961 3.58 3.973 3.58 1.715 0 2.172-.667 2.404-.667.231 0 .26.358.282.564m104.815 0h.384l.636-2.607h-.384s-.89 2.198-3.04 2.198c-2.149 0-2.858-1.866-2.858-3.145 0-1.276.565-3.168 2.736-3.168 2.172 0 3.191 1.482 3.272 1.586l.484-.308s-1.252-1.839-3.732-1.839c-2.478 0-4.158 1.764-4.158 3.806 0 2.045 1.963 3.58 3.982 3.58 1.708 0 2.165-.667 2.395-.667.233 0 .261.358.283.564m-74.742-6.632c-1.331 0-2.794.649-2.794 3.136 0 2.486 1.774 3.067 2.794 3.067 1.463 0 2.961-.82 2.961-3.101 0-2.555-1.636-3.102-2.961-3.102m.065 6.781c-2.012 0-4.254-1.295-4.254-3.61 0-2.727 2.516-3.749 4.254-3.749 1.737 0 4.294 1.261 4.294 3.61 0 2.351-2.108 3.749-4.294 3.749m34.006-6.781c-1.326 0-2.787.649-2.787 3.136 0 2.486 1.774 3.067 2.787 3.067 1.468 0 2.968-.82 2.968-3.101 0-2.555-1.637-3.102-2.968-3.102m.072 6.781c-2.012 0-4.263-1.295-4.263-3.61 0-2.727 2.526-3.749 4.263-3.749s4.298 1.261 4.298 3.61c0 2.351-2.119 3.749-4.298 3.749m20.274-6.781c-1.325 0-2.794.649-2.794 3.136 0 2.486 1.773 3.067 2.794 3.067 1.469 0 2.967-.82 2.967-3.101 0-2.555-1.642-3.102-2.967-3.102m.073 6.781c-2.013 0-4.264-1.295-4.264-3.61 0-2.727 2.518-3.749 4.264-3.749 1.738 0 4.292 1.261 4.292 3.61 0 2.351-2.114 3.749-4.292 3.749m-69.451-3.794s1.572-1.975 1.839-2.318c.276-.341.78-.748 1.295-.748v-.308h-1.866l-2.599 3.303s.549.17 1.331.071m-9.271-3.033c-1.325 0-2.786.647-2.786 3.132 0 2.489 1.766 3.069 2.786 3.069 1.469 0 2.969-.817 2.969-3.099 0-2.557-1.637-3.102-2.969-3.102m.073 6.781c-2.013 0-4.257-1.296-4.257-3.612 0-2.727 2.52-3.75 4.257-3.75 1.736 0 4.291 1.262 4.291 3.614 0 2.351-2.113 3.748-4.291 3.748" fill="#00706b"/><path d="M415.571 719.33v1.909c0 .648.311.919.918.919.615 0 2.896.238 2.896-1.294 0-1.534-1.086-1.534-3.814-1.534m1.744 3.373h-3.953v-.443c.709 0 1.05-.238 1.05-.989v-4.328c0-.987-1.05-.951-1.05-.951v-.308h3.164v.308c-.747 0-.955.371-.955 1.021v1.837h1.23c2.554 0 3.851.751 3.851 1.982 0 1.224-1.607 1.871-3.337 1.871m6.949-3.606v2.259c0 .646.303.918.919.918.614 0 2.417.02 2.417-1.512 0-1.362-.616-1.665-3.336-1.665m1.504 3.606h-3.72v-.443c.718 0 1.056-.238 1.056-.989v-4.328c0-.987-1.056-.951-1.056-.951v-.308h3.171v.308c-.753 0-.955.371-.955 1.021v1.61h1.222c2.048 0 3.236.808 3.236 2.036s-1.216 2.044-2.954 2.044m14.028-3.373v1.909c0 .648.312.919.92.919.622 0 2.902.238 2.902-1.294 0-1.534-1.093-1.534-3.822-1.534m1.737 3.373h-3.951v-.443c.716 0 1.064-.238 1.064-.989v-4.328c0-.987-1.064-.951-1.064-.951v-.308h3.178v.308c-.753 0-.964.371-.964 1.021v1.837h1.23c2.557 0 3.851.751 3.851 1.982 0 1.224-1.6 1.871-3.344 1.871" fill="#00706b"/><path d="M444.465 716.74c-.26.344-1.832 2.318-1.832 2.318-.787.099-1.33-.071-1.33-.071l2.584-3.303h3.959v.341s-1.434-.207-.919 1.058c.505 1.26 1.967 4.701 1.967 4.701s1.874-4.328 2.085-4.805c.204-.48.409-.922-.818-.922v-.373h3.235v.408s-.715-.238-1.296 1.092c-.578 1.327-2.351 5.519-2.351 5.519h-1.093s-2.381-5.316-2.656-5.897c-.268-.579-.811-.988-1.535-.066" fill="#00706b"/><path d="M450.704 718.786h-3.576v-.547h3.576zm80.481-1.98c.275.581 2.664 5.897 2.664 5.897h1.085s1.775-4.192 2.353-5.519c.579-1.33 1.296-1.092 1.296-1.092v-.408h-3.232v.373c1.218 0 1.017.442.815.922-.203.477-2.078 4.805-2.078 4.805s-1.469-3.441-1.977-4.701c-.513-1.265.92-1.058.92-1.058v-.341h-3.025v.444s.876.032 1.179.678" fill="#00706b"/><path d="M535.89 718.786h-3.574v-.547h3.574zm-82.97 1.94l-.479.138.578 1.839h6.001l.58-1.772-.513-.205s-.718 1.602-2.455 1.602v-5.213c0-.443-.03-1.058.992-1.058v-.373h-3.243v.373s1.027-.135 1.027 1.026v5.211c-.751 0-1.635-.034-2.488-1.568m6.847 1.636v.341h3.274v-.341s-1.061.069-1.061-.988v-4.259c0-.443-.028-1.023 1.061-1.023v-.408H459.7v.341s1.095-.103 1.095 1.058v4.223c0 .681-.276 1.056-1.028 1.056m49.646 0v.341h3.271v-.341s-1.055.069-1.055-.988v-4.259c0-.443-.03-1.023 1.055-1.023v-.408h-3.335v.341s1.092-.103 1.092 1.058v4.223c0 .681-.275 1.056-1.028 1.056m5.422 0v.341h3.27v-.341s-1.056.069-1.056-.988v-4.259c0-.443-.035-1.023 1.056-1.023v-.408h-3.343v.341s1.092-.103 1.092 1.058v4.223c0 .681-.267 1.056-1.019 1.056m3.712 0v.341h3.272v-.341s-1.056.069-1.056-.988v-4.259c0-.443-.03-1.023 1.056-1.023v-.408h-3.337v.341s1.091-.103 1.091 1.058v4.223c0 .681-.28 1.056-1.026 1.056m-46.613 0v.341h2.621l3.886-5.555v4.296c0 .578-.204.918-.992.918v.341h2.794v-.375s-1.086.204-1.086-.884v-5.76h-.984l-4.436 6.067v-4.636c0-.545.035-1.023 1.027-1.023v-.408h-2.794v.408s1.049-.17 1.049.991v4.326c0 .749-.441.953-1.085.953m50.334 0v.341h2.62l3.879-5.555v4.296c0 .578-.201.918-.983.918v.341h2.794v-.375s-1.089.204-1.089-.884v-5.76h-.989l-4.43 6.067v-4.636c0-.545.03-1.023 1.022-1.023v-.408h-2.794v.408s1.056-.17 1.056.991v4.326c0 .749-.442.953-1.086.953m-29.922-.034v.375h6.405l.817-1.737-.407-.204s-1.126 1.532-3.377 1.532c-1.123 0-1.224-.578-1.224-1.091v-3.952c0-.579 0-1.123 1.057-1.123v-.444h-3.271v.408s1.056-.17 1.056 1.159v4.055c0 .852-.478 1.022-1.056 1.022" fill="#00706b"/><path d="M494.386 719.705h1.13c.68 0 1.258.545 1.258 1.294h.341v-3.032h-.341s-.035 1.227-1.258 1.227h-1.332zm21.678.068h-4.741v-.479h4.741z" fill="#00706b"/></g></g></g></svg>